<?xml version="1.0" encoding="UTF-8"?>
<svg id="Layer_2" data-name="Layer 2" xmlns="http://www.w3.org/2000/svg" viewBox="0 0 206.07 91.98">
  <defs>
    <style>
      .cls-1 {
        fill: #085eab;
      }

      .cls-2 {
        fill: #089090;
      }
    </style>
  </defs>
  <g id="Layer_1-2" data-name="Layer 1">
    <g>
      <path class="cls-1" d="M49.89,89.13c.06,0,.12.02.16.07s.07.1.07.17c0,.06-.02.11-.06.15-.28.22-.58.38-.89.5-.31.11-.65.17-1,.17-.41,0-.79-.08-1.15-.23-.36-.15-.68-.37-.97-.65-.28-.29-.5-.62-.65-.97-.15-.36-.23-.74-.23-1.15,0-.83.29-1.53.88-2.11.59-.59,1.29-.88,2.12-.88.71,0,1.34.23,1.9.68.04.04.07.1.07.16s-.02.12-.07.16-.1.07-.16.07-.13-.03-.19-.09c-.43-.35-.95-.52-1.55-.52-.7,0-1.3.25-1.79.75-.49.49-.74,1.09-.74,1.79s.25,1.3.74,1.79,1.09.74,1.79.74c.6,0,1.13-.19,1.59-.56.03-.02.07-.03.12-.03Z"/>
      <path class="cls-1" d="M55.49,88.08c0,.58-.2,1.07-.61,1.48-.41.41-.9.61-1.48.61s-1.07-.21-1.48-.61c-.41-.41-.61-.9-.61-1.48s.2-1.07.61-1.48c.41-.41.9-.61,1.48-.61s1.07.2,1.48.61c.41.41.61.9.61,1.48ZM53.4,86.45c-.45,0-.83.16-1.15.48s-.48.7-.48,1.15.16.83.48,1.15.7.48,1.15.48.83-.16,1.15-.48c.32-.32.48-.7.48-1.15s-.16-.84-.48-1.15c-.32-.32-.7-.48-1.15-.48Z"/>
      <path class="cls-1" d="M56.67,86.22c0-.06.02-.12.07-.16s.1-.07.16-.07.12.02.17.07.07.1.07.16v.43c.46-.44.95-.67,1.47-.67s1,.19,1.37.57c.38.38.57.84.57,1.37v2.02c0,.07-.02.12-.07.17-.05.04-.1.07-.17.07s-.12-.02-.16-.07-.07-.1-.07-.17v-2.02c0-.41-.15-.76-.43-1.04-.29-.29-.64-.44-1.04-.44s-.75.15-1.04.44c-.29.28-.43.63-.43,1.04v2.02c0,.07-.02.12-.07.17s-.1.07-.17.07-.12-.02-.16-.07-.07-.1-.07-.17v-3.73Z"/>
      <path class="cls-1" d="M61.74,86.22c0-.06.02-.12.07-.16s.1-.07.16-.07.12.02.17.07.07.1.07.16v.43c.46-.44.95-.67,1.47-.67s1,.19,1.37.57c.38.38.57.84.57,1.37v2.02c0,.07-.02.12-.07.17-.05.04-.1.07-.17.07s-.12-.02-.16-.07-.07-.1-.07-.17v-2.02c0-.41-.15-.76-.43-1.04-.29-.29-.64-.44-1.04-.44s-.75.15-1.04.44c-.29.28-.43.63-.43,1.04v2.02c0,.07-.02.12-.07.17s-.1.07-.17.07-.12-.02-.16-.07-.07-.1-.07-.17v-3.73Z"/>
      <path class="cls-1" d="M70.09,89.28c.06,0,.12.02.16.07s.07.1.07.17-.02.12-.06.16c-.39.34-.84.5-1.37.5-.58,0-1.07-.21-1.48-.61-.41-.41-.61-.9-.61-1.48s.2-1.07.61-1.48c.41-.41.9-.61,1.48-.61s1.07.2,1.48.61c.41.41.61.9.61,1.48,0,.07-.02.12-.07.17s-.1.07-.17.07h-3.49c.08.37.23.68.47.92.32.32.7.48,1.15.48.2,0,.39-.03.57-.1.17-.07.33-.16.48-.29.04-.04.09-.05.15-.05ZM70.52,87.85c-.07-.37-.23-.68-.47-.92-.32-.32-.7-.48-1.15-.48s-.83.16-1.15.48c-.24.24-.4.55-.47.92h3.25Z"/>
      <path class="cls-1" d="M75.47,89.27c.06,0,.12.02.16.07.04.05.07.1.07.17s-.02.12-.07.17c-.19.16-.4.29-.63.37-.23.09-.48.13-.73.13-.58,0-1.07-.21-1.48-.61-.41-.41-.61-.9-.61-1.48s.2-1.07.61-1.48c.41-.41.9-.61,1.48-.61.26,0,.5.04.74.13s.44.21.63.37c.02.02.04.05.06.08s.02.07.02.1c0,.07-.02.12-.07.17s-.1.07-.16.07c-.06,0-.11-.02-.15-.06-.3-.27-.66-.4-1.07-.4-.45,0-.83.16-1.15.48-.32.32-.48.7-.48,1.15s.16.84.48,1.15c.32.32.7.48,1.15.48.2,0,.39-.04.57-.11.18-.07.35-.17.5-.29.04-.03.08-.04.14-.04Z"/>
      <path class="cls-1" d="M79.05,89.71c.06,0,.12.02.17.07.05.04.07.1.07.16s-.02.12-.07.17c-.05.04-.1.07-.17.07-.98,0-1.47-.49-1.47-1.47v-2.25h-.39c-.06,0-.12-.02-.17-.07-.05-.04-.07-.1-.07-.17s.02-.12.07-.16c.05-.04.1-.07.17-.07h.39v-1.57c0-.07.02-.12.07-.17s.1-.07.16-.07.12.02.17.07.07.1.07.17v1.57h.7c.06,0,.12.02.17.07.05.04.07.1.07.16s-.02.12-.07.17c-.05.04-.1.07-.17.07h-.7v2.25c0,.67.34,1.01,1.01,1.01Z"/>
      <path class="cls-1" d="M81.38,84.98c0,.09-.03.16-.09.22s-.13.09-.22.09-.16-.03-.22-.09-.09-.13-.09-.22.03-.16.09-.22c.06-.06.13-.09.22-.09s.16.03.22.09c.06.06.09.13.09.22ZM80.84,86.22c0-.06.02-.12.07-.16s.1-.07.17-.07.12.02.17.07c.05.04.07.1.07.16v3.73c0,.07-.02.12-.07.17-.05.04-.1.07-.17.07s-.12-.02-.17-.07-.07-.1-.07-.17v-3.73Z"/>
      <path class="cls-1" d="M82.88,86.22c0-.06.02-.12.07-.16s.1-.07.16-.07.12.02.17.07.07.1.07.16v.43c.46-.44.95-.67,1.47-.67s1,.19,1.37.57c.38.38.57.84.57,1.37v2.02c0,.07-.02.12-.07.17-.05.04-.1.07-.17.07s-.12-.02-.16-.07-.07-.1-.07-.17v-2.02c0-.41-.15-.76-.43-1.04-.29-.29-.64-.44-1.04-.44s-.75.15-1.04.44c-.29.28-.43.63-.43,1.04v2.02c0,.07-.02.12-.07.17s-.1.07-.17.07-.12-.02-.16-.07-.07-.1-.07-.17v-3.73Z"/>
      <path class="cls-1" d="M91.67,89.41c-.46.5-1,.76-1.63.76-.58,0-1.07-.2-1.48-.61-.41-.41-.61-.9-.61-1.48s.2-1.07.61-1.48c.41-.41.9-.61,1.48-.61s1.07.2,1.48.61c.41.41.61.9.61,1.48v2.12c0,.43-.16.8-.47,1.12-.44.44-.97.66-1.59.66s-1.15-.22-1.59-.66c-.16-.15-.29-.32-.39-.5-.03-.05-.04-.09-.04-.14,0-.06.02-.12.07-.17s.1-.07.16-.07.12.02.17.07c.02.02.04.04.05.07.08.15.19.29.31.41.17.17.37.3.58.39.21.09.44.13.68.13.49,0,.92-.17,1.27-.52.22-.26.33-.53.33-.79v-.79ZM90.04,86.45c-.45,0-.83.16-1.15.48-.32.32-.48.7-.48,1.15s.16.83.48,1.15c.32.32.7.48,1.15.48s.83-.16,1.15-.48c.32-.32.48-.7.48-1.15s-.16-.84-.48-1.15c-.32-.32-.7-.48-1.15-.48Z"/>
      <path class="cls-1" d="M99.26,84.25s.1-.06.16-.06c.06,0,.12.02.16.06.02.03.04.06.06.09l1.32,4.74,1.31-4.74s.03-.07.06-.09c.04-.04.1-.06.16-.06s.12.02.16.07c.04.04.07.1.07.17,0,.03,0,.07-.02.11l-1.5,5.44c-.02.05-.04.1-.08.13-.05.04-.1.07-.16.07-.06,0-.12-.02-.16-.07-.04-.04-.06-.08-.08-.13l-1.3-4.69-1.29,4.68c-.02.05-.04.1-.08.13-.05.04-.1.07-.16.07s-.12-.02-.16-.07c-.04-.04-.06-.08-.08-.13l-1.51-5.45s-.02-.08-.02-.11c0-.07.02-.12.07-.17s.1-.07.17-.07.12.02.16.06c.02.03.04.06.05.09l1.32,4.74,1.32-4.74s.03-.06.06-.09Z"/>
      <path class="cls-1" d="M107.58,88.08c0,.58-.2,1.07-.61,1.48-.41.41-.9.61-1.48.61s-1.07-.21-1.48-.61c-.41-.41-.61-.9-.61-1.48s.2-1.07.61-1.48c.41-.41.9-.61,1.48-.61s1.07.2,1.48.61c.41.41.61.9.61,1.48ZM105.49,86.45c-.45,0-.83.16-1.15.48s-.48.7-.48,1.15.16.83.48,1.15.7.48,1.15.48.83-.16,1.15-.48c.32-.32.48-.7.48-1.15s-.16-.84-.48-1.15c-.32-.32-.7-.48-1.15-.48Z"/>
      <path class="cls-1" d="M108.77,86.22c0-.06.02-.12.07-.16s.1-.07.17-.07.12.02.16.07.07.1.07.16v.53c.51-.51,1.05-.76,1.63-.76.31,0,.58.05.8.15.04.02.08.04.11.07.04.04.06.1.06.17s-.02.12-.07.16-.1.07-.16.07c-.04,0-.08,0-.11-.02-.17-.08-.39-.13-.64-.13-.45,0-.83.16-1.15.48-.32.32-.48.7-.48,1.15v1.86c0,.07-.02.12-.07.17s-.1.07-.16.07-.12-.02-.17-.07-.07-.1-.07-.17v-3.73Z"/>
      <path class="cls-1" d="M112.95,84.41c0-.07.02-.12.07-.17s.1-.07.17-.07.12.02.17.07c.05.04.07.1.07.17v5.3h.38c.07,0,.12.02.17.07s.07.1.07.16-.02.12-.07.17-.1.07-.17.07h-.62c-.06,0-.12-.02-.17-.07s-.07-.1-.07-.17v-5.53Z"/>
      <path class="cls-1" d="M119.02,84.42c0-.07.02-.12.07-.17.05-.04.1-.07.17-.07s.12.02.17.07.07.1.07.17v3.66c0,.58-.21,1.07-.61,1.48s-.9.61-1.48.61-1.07-.21-1.48-.61-.61-.9-.61-1.48.2-1.07.61-1.48c.41-.41.9-.61,1.48-.61s1.07.2,1.48.61l.15.15v-2.32ZM119.02,88.08c0-.45-.16-.84-.48-1.15s-.7-.48-1.15-.48-.83.16-1.15.48c-.32.32-.48.7-.48,1.15s.16.83.48,1.15c.32.32.7.48,1.15.48s.83-.16,1.15-.48.48-.7.48-1.15Z"/>
      <path class="cls-1" d="M128.19,89.13c.06,0,.12.02.17.07s.07.1.07.17c0,.06-.02.11-.06.15-.28.22-.58.38-.89.5-.31.11-.65.17-1,.17-.41,0-.79-.08-1.15-.23-.36-.15-.68-.37-.97-.65-.28-.29-.5-.62-.65-.97-.15-.36-.23-.74-.23-1.15,0-.83.29-1.53.88-2.11.59-.59,1.29-.88,2.12-.88.71,0,1.34.23,1.9.68.04.04.07.1.07.16s-.02.12-.07.16-.1.07-.16.07-.13-.03-.19-.09c-.43-.35-.95-.52-1.55-.52-.7,0-1.3.25-1.79.75-.49.49-.74,1.09-.74,1.79s.25,1.3.74,1.79,1.09.74,1.79.74c.6,0,1.13-.19,1.59-.56.03-.02.07-.03.12-.03Z"/>
      <path class="cls-1" d="M129.6,84.41c0-.07.02-.12.07-.17s.1-.07.17-.07.12.02.17.07.07.1.07.17v2.24c.46-.44.95-.67,1.47-.67s1,.19,1.37.57c.38.38.57.84.57,1.37v2.02c0,.07-.02.12-.07.17-.05.04-.1.07-.17.07s-.12-.02-.17-.07-.07-.1-.07-.17v-2.02c0-.41-.14-.76-.43-1.04-.29-.29-.64-.44-1.04-.44s-.75.15-1.04.44c-.29.28-.43.63-.43,1.04v2.02c0,.07-.02.12-.07.17s-.1.07-.17.07-.12-.02-.17-.07-.07-.1-.07-.17v-5.53Z"/>
      <path class="cls-1" d="M137.96,89.28c.06,0,.12.02.17.07s.07.1.07.17-.02.12-.06.16c-.39.34-.84.5-1.37.5-.58,0-1.07-.21-1.48-.61s-.61-.9-.61-1.48.2-1.07.61-1.48c.41-.41.9-.61,1.48-.61s1.07.2,1.48.61c.41.41.61.9.61,1.48,0,.07-.02.12-.07.17s-.1.07-.17.07h-3.49c.07.37.23.68.47.92.32.32.7.48,1.15.48.21,0,.39-.03.57-.1s.33-.16.48-.29c.04-.04.09-.05.15-.05ZM138.38,87.85c-.07-.37-.23-.68-.47-.92-.32-.32-.7-.48-1.15-.48s-.83.16-1.15.48c-.24.24-.4.55-.47.92h3.25Z"/>
      <path class="cls-1" d="M140.48,89.95c0,.07-.02.12-.07.17s-.1.07-.17.07-.12-.02-.17-.07c-.05-.04-.07-.1-.07-.17v-3.73c0-.06.02-.12.07-.16.05-.04.1-.07.17-.07s.12.02.17.07.07.1.07.16v.25c.38-.32.77-.48,1.16-.48.45,0,.83.16,1.15.48.08.08.16.18.24.29.08-.11.17-.21.25-.29.32-.32.7-.48,1.15-.48s.83.16,1.15.48c.32.32.48.7.48,1.15v2.33c0,.07-.02.12-.07.17s-.1.07-.17.07-.12-.02-.17-.07-.07-.1-.07-.17v-2.33c0-.32-.11-.6-.34-.82-.23-.23-.5-.34-.82-.34s-.59.12-.82.34c-.23.23-.34.5-.34.82v2.33c0,.07-.02.12-.07.17s-.1.07-.17.07-.12-.02-.17-.07-.07-.1-.07-.17v-2.33c0-.32-.11-.6-.34-.82-.23-.23-.5-.34-.82-.34s-.59.12-.82.34c-.23.23-.34.5-.34.82v2.33Z"/>
      <path class="cls-1" d="M148.08,84.98c0,.09-.03.16-.09.22-.06.06-.13.09-.22.09s-.16-.03-.22-.09-.09-.13-.09-.22.03-.16.09-.22c.06-.06.13-.09.22-.09s.16.03.22.09c.06.06.09.13.09.22ZM147.53,86.22c0-.06.02-.12.07-.16s.1-.07.16-.07.12.02.17.07.07.1.07.16v3.73c0,.07-.02.12-.07.17s-.1.07-.17.07-.12-.02-.16-.07-.07-.1-.07-.17v-3.73Z"/>
      <path class="cls-1" d="M152.87,89.27c.06,0,.12.02.16.07.04.05.07.1.07.17s-.02.12-.07.17c-.19.16-.4.29-.63.37-.23.09-.48.13-.73.13-.58,0-1.07-.21-1.48-.61s-.61-.9-.61-1.48.2-1.07.61-1.48c.41-.41.9-.61,1.48-.61.26,0,.5.04.74.13s.44.21.63.37c.02.02.04.05.06.08.02.03.02.07.02.1,0,.07-.02.12-.07.17s-.1.07-.17.07c-.06,0-.11-.02-.15-.06-.3-.27-.66-.4-1.07-.4-.45,0-.83.16-1.15.48-.32.32-.48.7-.48,1.15s.16.84.48,1.15c.32.32.7.48,1.15.48.2,0,.39-.04.57-.11.18-.07.35-.17.5-.29.04-.03.08-.04.14-.04Z"/>
      <path class="cls-1" d="M158.06,89.42c-.5.51-1.05.76-1.63.76s-1.07-.21-1.48-.61-.61-.9-.61-1.48.2-1.07.61-1.48c.41-.41.9-.61,1.48-.61s1.07.2,1.48.61c.41.41.61.9.61,1.48v1.86c0,.07-.02.12-.07.17s-.1.07-.17.07-.12-.02-.17-.07c-.05-.04-.07-.1-.07-.17v-.53ZM156.43,86.45c-.45,0-.83.16-1.15.48-.32.32-.48.7-.48,1.15s.16.83.48,1.15c.32.32.7.48,1.15.48s.83-.16,1.15-.48.48-.7.48-1.15-.16-.84-.48-1.15-.7-.48-1.15-.48Z"/>
      <path class="cls-1" d="M159.73,84.41c0-.07.02-.12.07-.17s.1-.07.17-.07.12.02.17.07c.05.04.07.1.07.17v5.3h.38c.07,0,.12.02.17.07s.07.1.07.16-.02.12-.07.17-.1.07-.17.07h-.62c-.06,0-.12-.02-.17-.07s-.07-.1-.07-.17v-5.53Z"/>
      <path class="cls-1" d="M162.1,84.41c0-.07.02-.12.07-.17s.1-.07.17-.07.12.02.17.07c.05.04.07.1.07.17v5.3h.38c.07,0,.12.02.17.07s.07.1.07.16-.02.12-.07.17-.1.07-.17.07h-.62c-.06,0-.12-.02-.17-.07s-.07-.1-.07-.17v-5.53Z"/>
      <path class="cls-1" d="M165.98,89.94l-1.52-3.63s-.02-.06-.02-.09c0-.06.02-.12.07-.16.05-.04.1-.07.17-.07s.12.02.17.07c.02.02.04.05.06.09l1.33,3.18,1.33-3.18s.04-.07.06-.1c.04-.04.09-.06.16-.06s.12.02.16.07.07.1.07.16c0,.03,0,.05-.01.08l-2.31,5.52s-.03.06-.05.09c-.05.05-.1.07-.17.07s-.12-.02-.16-.07-.07-.1-.07-.17c0-.03,0-.06.01-.08l.71-1.72Z"/>
    </g>
    <g>
      <path class="cls-2" d="M24.72,17.54v.84c-.04,4.8-.5,6.26-2.46,7.89-1,.84-2.51,1.5-3.88,1.75-.84.17-2.67.25-5.22.25-5.1,0-6.31-.13-8.02-.92-2.38-1.13-3.93-3.09-4.47-5.81-.29-1.38-.46-5.26-.46-9.9S.87,4.55,2.79,2.67C5.04.5,7.17,0,13.77,0c4.13,0,5.47.17,7.1.92,2.05.96,3.13,2.59,3.51,5.18.13.96.17,1.71.21,4.09h-7.39c-.08-1.75-.13-2.05-.42-2.59-.5-.88-1.59-1.17-4.3-1.17s-3.76.5-4.22,1.92c-.33.96-.42,2.42-.42,8.23,0,4.39.83,5.3,4.89,5.3,3.68,0,4.64-.71,4.64-3.55,0-.08,0-.46-.04-.79h7.39Z"/>
      <path class="cls-2" d="M52.57,28.06h-7.48v-10.94h-9.69v10.94h-7.48V.21h7.48v10.52h9.69V.21h7.48v27.86Z"/>
      <path class="cls-2" d="M64.55,11.36h11.86v5.14h-11.86v5.43h12.95v6.14h-20.42V.21h20.17v6.14h-12.7v5.01Z"/>
      <path class="cls-2" d="M115.75,28.06h-7.35v-8.35c0-2.71.04-3.88.38-9.73l.17-3.26h-.25l-.96,3.17-1,3.17-2.09,6.35-2.88,8.65h-6.39l-2.97-8.69-2.13-6.31c-.5-1.63-1.17-3.76-2-6.35h-.25l.21,3.26c.33,5.85.42,7.39.42,9.73v8.35h-7.35V.21h11.65l2.59,7.98c.88,2.67,1.25,3.93,1.92,6.18.29,1.13.58,2.25.92,3.34h.29l.63-2.38c.92-3.47,1.04-3.97,2.05-7.1L103.85.21h11.9v27.86Z"/>
      <path class="cls-2" d="M127.73,28.06h-7.48V.21h7.48v27.86Z"/>
      <path class="cls-2" d="M155.88,17.54v.84c-.04,4.8-.5,6.26-2.46,7.89-1,.84-2.51,1.5-3.88,1.75-.83.17-2.67.25-5.22.25-5.1,0-6.31-.13-8.02-.92-2.38-1.13-3.93-3.09-4.47-5.81-.29-1.38-.46-5.26-.46-9.9s.67-7.1,2.59-8.98c2.25-2.17,4.38-2.67,10.98-2.67,4.13,0,5.47.17,7.1.92,2.05.96,3.13,2.59,3.51,5.18.12.96.17,1.71.21,4.09h-7.39c-.08-1.75-.12-2.05-.42-2.59-.5-.88-1.59-1.17-4.3-1.17s-3.76.5-4.22,1.92c-.33.96-.42,2.42-.42,8.23,0,4.39.84,5.3,4.89,5.3,3.67,0,4.64-.71,4.64-3.55,0-.08,0-.46-.04-.79h7.39Z"/>
      <path class="cls-2" d="M165.9,23.26l-1.34,4.8h-7.77L165.15.21h11.32l8.48,27.86h-7.6l-1.46-4.8h-9.98ZM170.91,5.76l-3.42,12.11h6.93l-3.51-12.11Z"/>
      <path class="cls-2" d="M194.38,21.68h11.69v6.39h-19.17V.21h7.48v21.47Z"/>
    </g>
    <g>
      <path class="cls-1" d="M22.58,78.53h-11.61v-33.35H0v-9.93h34.26v9.93h-11.68v33.35Z"/>
      <path class="cls-1" d="M69.55,36.43c4.15,1.82,6.55,4.87,7.46,9.47.45,2.01.58,5.19.58,11.22,0,9.34-.45,12.33-2.53,15.57-2.85,4.54-7.79,6.16-18.36,6.16-6.75,0-10.12-.58-12.91-2.34-3.37-2.08-5.19-4.8-6.03-9.02-.32-1.82-.45-4.02-.45-8.3,0-7.85.32-12.07,1.17-14.99.97-3.63,3.96-6.55,8.3-8.11,2.34-.78,5.84-1.17,11.35-1.17,5.9,0,8.89.39,11.42,1.49ZM50.15,47.45c-.71,1.43-.91,3.57-.91,9.99,0,10.71.52,11.42,8.43,11.42,4.74,0,6.23-.65,7.2-3.11.65-1.69.84-3.63.84-9.34s-.13-7.33-.78-8.89c-.91-2.08-2.47-2.66-7.14-2.66-5.06,0-6.62.52-7.66,2.59Z"/>
      <path class="cls-1" d="M83.25,35.26h22.64c4.28,0,8.11.78,10.45,2.21,4.22,2.53,6.36,7.2,6.36,13.95l-.06,5.13c0,10.64-.39,13.04-2.79,16.67-2.66,3.83-6.94,5.32-14.6,5.32h-21.99v-43.27ZM104.27,68.61c2.98,0,4.28-.65,5.38-2.53.91-1.49,1.17-3.89,1.17-9.8,0-5.13-.32-7.59-1.17-8.89-.91-1.49-2.4-2.08-5.38-2.08h-9.41v23.29h9.41Z"/>
      <path class="cls-1" d="M138.07,71.07l-2.08,7.46h-12.07l12.98-43.27h17.58l13.17,43.27h-11.81l-2.27-7.46h-15.51ZM145.86,43.89l-5.32,18.81h10.77l-5.45-18.81Z"/>
      <path class="cls-1" d="M189.91,63.48v15.05h-11.61v-15.05l-15.31-28.22h13.24l3.89,8.3,1.95,4.22c.65,1.36,1.23,2.72,1.88,4.15h.39c.65-1.36,1.36-2.92,1.95-4.15l2.01-4.22,4.02-8.3h13.37l-15.77,28.22Z"/>
    </g>
  </g>
</svg>